<svg id="Component_38_1" data-name="Component 38 – 1" xmlns="http://www.w3.org/2000/svg" width="28" height="28" viewBox="0 0 28 28">
  <rect id="Rectangle_354" data-name="Rectangle 354" width="28" height="28" rx="5" fill="#282a35"/>
  <path id="Path_1043" data-name="Path 1043" d="M-353.995,348.28a2.781,2.781,0,0,1,.5.308c1.182,1.047,2.353,2.107,3.528,3.163.579.52.966.5,1.481-.069q3.5-3.885,7.009-7.768a1.632,1.632,0,0,1,.4-.343.786.786,0,0,1,.987.223.781.781,0,0,1-.018,1.013c-.375.444-.771.87-1.16,1.3q-3.578,3.971-7.157,7.942c-.586.65-.947.662-1.585.061q-2.3-2.17-4.609-4.34a.811.811,0,0,1-.275-.982A.857.857,0,0,1-353.995,348.28Z" transform="translate(361.438 -335.015)" fill="#fff"/>
</svg>
