<svg xmlns="http://www.w3.org/2000/svg" width="40" height="40" viewBox="0 0 40 40">
  <g id="Group_360" data-name="Group 360" transform="translate(-1361 -60)">
    <g id="Group_356" data-name="Group 356" transform="translate(1361.277 60)">
      <g id="Rectangle_105" data-name="Rectangle 105" transform="translate(-0.277)" fill="none" stroke="#f4f0ec" stroke-width="2">
        <rect width="40" height="40" rx="10" stroke="none"/>
        <rect x="1" y="1" width="38" height="38" rx="9" fill="none"/>
      </g>
    </g>
    <g id="Group_687" data-name="Group 687" transform="translate(1883.177 22.928)">
      <path id="Path_1056" data-name="Path 1056" d="M-511.774,61.466V52.671c-2.579-.974-3.823-2.829-3.4-5.053A4.348,4.348,0,0,1-510.783,44a4.352,4.352,0,0,1,4.221,3.757,4.4,4.4,0,0,1-3.425,4.893V61.39c.163.012.319.033.475.033,1.851,0,3.7.011,5.554,0a9.569,9.569,0,0,0,9.478-7.941c.049-.265.066-.535.1-.829l-.478-.167a4.371,4.371,0,0,1-2.912-4.8A4.36,4.36,0,0,1-493.428,44a4.364,4.364,0,0,1,4.291,3.743,4.337,4.337,0,0,1-2.983,4.745.705.705,0,0,0-.563.71,11.288,11.288,0,0,1-11.177,9.968c-1.138.009-2.276,0-3.5,0a4.423,4.423,0,0,1,.468,4.355,4.212,4.212,0,0,1-2.407,2.314,4.347,4.347,0,0,1-5.645-2.484C-515.906,64.886-514.686,62.611-511.774,61.466Zm3.5-13.135a2.623,2.623,0,0,0-2.624-2.583,2.622,2.622,0,0,0-2.6,2.61,2.624,2.624,0,0,0,2.651,2.611A2.624,2.624,0,0,0-508.272,48.33Zm-2.611,14.842a2.622,2.622,0,0,0-2.61,2.6,2.623,2.623,0,0,0,2.583,2.624,2.622,2.622,0,0,0,2.638-2.623A2.623,2.623,0,0,0-510.882,63.173Zm20.035-14.831a2.623,2.623,0,0,0-2.6-2.594,2.623,2.623,0,0,0-2.622,2.626,2.623,2.623,0,0,0,2.6,2.595A2.624,2.624,0,0,0-490.847,48.341Z" fill="#f4f0ec"/>
    </g>
  </g>
</svg>
