<svg id="Layer_1" data-name="Layer 1" xmlns="http://www.w3.org/2000/svg" width="118.6584" height="40.6005" viewBox="0 0 118.6584 40.6005"><defs><style>.cls-1{fill:#fff;}</style></defs><polygon class="cls-1" points="54.515 16.97 61.091 16.97 61.091 24.348 65.005 24.348 65.005 6.956 61.091 6.956 61.091 13.607 54.515 13.607 54.515 6.956 50.601 6.956 50.601 24.348 54.515 24.348 54.515 16.97"/><path class="cls-1" d="M82.1458,16.6434a4.1179,4.1179,0,0,0-2.2593-1.7065,3.6848,3.6848,0,0,0,2.0076-3.2875,4.4391,4.4391,0,0,0-.5643-2.321A4.2779,4.2779,0,0,0,79.761,7.81a7.2326,7.2326,0,0,0-2.3963-.8153,18.0888,18.0888,0,0,0-3.0487-.2388q-1.23.0007-2.66.1126a25.2868,25.2868,0,0,0-2.6358.3392V24.0717a20.1071,20.1071,0,0,0,2.9491.4137q1.4183.0882,2.848.0881a10.438,10.438,0,0,0,5.9354-1.3809,4.6734,4.6734,0,0,0,1.9948-4.115A4.9127,4.9127,0,0,0,82.1458,16.6434ZM72.8353,9.99q.4518-.05,1.029-.0631t1.0791-.0129a5.1613,5.1613,0,0,1,2.359.43,1.535,1.535,0,0,1,.803,1.4806,1.6053,1.6053,0,0,1-.7787,1.4929,5.301,5.301,0,0,1-2.5848.4646H72.8353Zm4.8714,10.8656a6.779,6.779,0,0,1-2.8357.502c-.4008,0-.7694-.0086-1.1035-.0251q-.5062-.0214-.9322-.0717V16.7689l2.4658-.0043a5.3046,5.3046,0,0,1,2.5813.5141A1.82,1.82,0,0,1,78.7858,19,1.86,1.86,0,0,1,77.7067,20.8558Z"/><path class="cls-1" d="M87.6661,22.4024a7.7268,7.7268,0,0,0,2.76,1.7209,9.7281,9.7281,0,0,0,3.3635.5779,9.9733,9.9733,0,0,0,3.4252-.5779,7.4653,7.4653,0,0,0,2.7484-1.7209,8.0778,8.0778,0,0,0,1.819-2.8357,10.6856,10.6856,0,0,0,.6654-3.9264,10.5218,10.5218,0,0,0-.68-3.93,8.1732,8.1732,0,0,0-1.857-2.8487A7.6654,7.6654,0,0,0,97.15,7.13a9.7272,9.7272,0,0,0-3.3628-.5736A9.4736,9.4736,0,0,0,90.489,7.13a7.8,7.8,0,0,0-2.76,1.7338,8.365,8.365,0,0,0-1.8951,2.8487,10.1913,10.1913,0,0,0-.7026,3.9278,10.5187,10.5187,0,0,0,.6775,3.9264A8.0365,8.0365,0,0,0,87.6661,22.4024Zm1.8191-9.0588a5.2627,5.2627,0,0,1,.9041-1.7818,4.1188,4.1188,0,0,1,1.4426-1.1543,4.4279,4.4279,0,0,1,1.9575-.4137,4.5765,4.5765,0,0,1,1.9453.4007A3.9761,3.9761,0,0,1,97.19,11.5367a5.2739,5.2739,0,0,1,.9041,1.7811A8.0568,8.0568,0,0,1,98.407,15.64a7.92,7.92,0,0,1-.3134,2.308,5.2869,5.2869,0,0,1-.9041,1.77,3.9711,3.9711,0,0,1-1.4548,1.1408,4.9345,4.9345,0,0,1-3.9027,0,3.99,3.99,0,0,1-1.4427-1.1408,5.2768,5.2768,0,0,1-.9041-1.77,7.8962,7.8962,0,0,1-.3141-2.308A7.9336,7.9336,0,0,1,89.4852,13.3436Z"/><rect class="cls-1" x="104.8344" y="15.1606" width="7.2784" height="3.3872"/><rect class="cls-1" x="114.7442" y="6.9565" width="3.9142" height="17.3912"/><path class="cls-1" d="M25.7153,2.2464l.0028-.0028a7.66,7.66,0,0,0-10.8329,0L2.2436,14.8853a7.66,7.66,0,0,0,0,10.8328L14.8824,38.3569a7.66,7.66,0,0,0,10.8329,0L38.3541,25.7181a7.66,7.66,0,0,0,0-10.8328ZM5.2615,17.8918,17.9,5.2531a3.4,3.4,0,0,1,4.8083,0l-.0028.0028,7.2348,7.2347L12.317,29.7557h0L5.2615,22.7A3.4,3.4,0,0,1,5.2615,17.8918Z"/><polygon class="cls-1" points="50.619 36.773 51.699 36.773 51.699 32.956 55.527 32.956 55.527 32.057 51.699 32.057 51.699 29.213 56.247 29.213 56.247 28.253 50.619 28.253 50.619 36.773"/><rect class="cls-1" x="57.6153" y="28.2534" width="1.0801" height="8.5195"/><polygon class="cls-1" points="66.856 34.889 61.575 28.253 60.735 28.253 60.735 36.773 61.815 36.773 61.815 30.269 67.023 36.773 67.936 36.773 67.936 28.265 66.856 28.265 66.856 34.889"/><path class="cls-1" d="M76.01,29.5a3.6467,3.6467,0,0,0-1.29-.9111,4.4578,4.4578,0,0,0-1.794-.3359H69.9747v8.52h2.9516a4.518,4.518,0,0,0,1.6983-.3057,3.7061,3.7061,0,0,0,1.3017-.8642,3.7614,3.7614,0,0,0,.8282-1.3438,5.0779,5.0779,0,0,0,.288-1.7588,5.1862,5.1862,0,0,0-.2578-1.6494A3.8014,3.8014,0,0,0,76.01,29.5Zm-.2578,4.3145a3.0625,3.0625,0,0,1-.5762,1.05,2.6091,2.6091,0,0,1-.9472.6963,3.1978,3.1978,0,0,1-1.3028.2519H71.0547v-6.6h1.8716a3.1972,3.1972,0,0,1,1.2842.2451,2.746,2.746,0,0,1,.9541.6787,2.8433,2.8433,0,0,1,.5879,1.0381,4.4936,4.4936,0,0,1,0,2.64Z"/><polygon class="cls-1" points="88.239 28.253 87.075 28.253 82.682 32.969 82.682 28.265 81.602 28.265 81.602 36.773 82.682 36.773 82.682 34.169 84.159 32.633 87.254 36.773 88.43 36.773 84.819 32.009 88.239 28.253"/><path class="cls-1" d="M94.8326,29.1108a2.6163,2.6163,0,0,0-.8154-.624,2.31,2.31,0,0,0-1.0381-.2334H89.4263v8.52h1.08v-3.06H93.05a2.2832,2.2832,0,0,0,1.0263-.2285,2.4614,2.4614,0,0,0,.792-.6123,2.82,2.82,0,0,0,.51-.876,2.9392,2.9392,0,0,0,.1806-1.02,2.6779,2.6779,0,0,0-.1923-.99A2.96,2.96,0,0,0,94.8326,29.1108Zm-.4737,2.55a1.8968,1.8968,0,0,1-.3.57,1.3717,1.3717,0,0,1-.4619.3838,1.32,1.32,0,0,1-.6064.1387H90.5064v-3.54h2.4121a1.39,1.39,0,0,1,.5947.1319,1.48,1.48,0,0,1,.4913.372,1.8746,1.8746,0,0,1,.3359.5635,1.9038,1.9038,0,0,1,.126.6963A2.136,2.136,0,0,1,94.3589,31.6606Z"/><rect class="cls-1" x="96.9019" y="28.2534" width="1.0801" height="8.5195"/><polygon class="cls-1" points="99.735 29.381 100.094 29.381 99.854 30.761 100.371 30.761 100.73 29.381 100.73 28.013 99.735 28.013 99.735 29.381"/><path class="cls-1" d="M107.5406,32.8373a3.4873,3.4873,0,0,0-.9121-.4628,10.488,10.488,0,0,0-1.1934-.3292q-.5757-.1332-.9961-.2529a3.1332,3.1332,0,0,1-.7021-.2812,1.0849,1.0849,0,0,1-.4141-.3907,1.1339,1.1339,0,0,1-.1318-.5752,1.24,1.24,0,0,1,.4619-1.0205,2.3159,2.3159,0,0,1,1.458-.372,3.4388,3.4388,0,0,1,.7383.0781,3.7677,3.7677,0,0,1,.6533.2041,3.3715,3.3715,0,0,1,.54.2822,1.7967,1.7967,0,0,1,.3848.3233l.5039-.876a4.563,4.563,0,0,0-4.02-.81,2.7647,2.7647,0,0,0-.9717.4863,2.25,2.25,0,0,0-.6357.792,2.43,2.43,0,0,0-.2285,1.08,2.02,2.02,0,0,0,.1679.8633,1.6354,1.6354,0,0,0,.4981.6123,3.104,3.104,0,0,0,.8222.4316,10.37,10.37,0,0,0,1.14.336q.5874.145,1.05.2822a3.62,3.62,0,0,1,.7744.3184,1.368,1.368,0,0,1,.4736.4257,1.1978,1.1978,0,0,1-.3417,1.5782,2.6139,2.6139,0,0,1-1.4161.3242,4.2245,4.2245,0,0,1-.9414-.1025,5.1692,5.1692,0,0,1-.8408-.2637,4.0414,4.0414,0,0,1-.6953-.3662,2.8168,2.8168,0,0,1-.498-.4082l-.5167.9121a5.2164,5.2164,0,0,0,1.6026.8945,5.6492,5.6492,0,0,0,1.8662.3057,5.1525,5.1525,0,0,0,1.2236-.1377,2.82,2.82,0,0,0,.9776-.4326,2.117,2.117,0,0,0,.6543-.7442,2.2213,2.2213,0,0,0,.24-1.0615,2.1594,2.1594,0,0,0-.1982-.9717A1.8424,1.8424,0,0,0,107.5406,32.8373Z"/></svg>