<svg id="Layer_1" data-name="Layer 1" xmlns="http://www.w3.org/2000/svg" width="25.6392" height="23.8291" viewBox="0 0 25.6392 23.8291"><defs><style>.cls-1{fill:#525669;}</style></defs><g id="Group_349" data-name="Group 349"><g id="Line_25" data-name="Line 25"><path class="cls-1" d="M24.6387,23.8291a.9982.9982,0,0,1-.6631-.251l-7.16-6.3369a1,1,0,1,1,1.3262-1.498l7.16,6.3369a1,1,0,0,1-.6631,1.749Z" transform="translate(0 0)"/></g><g id="Ellipse_81" data-name="Ellipse 81"><path class="cls-1" d="M10.33,20.66A10.33,10.33,0,1,1,20.66,10.33h0A10.3418,10.3418,0,0,1,10.33,20.66ZM10.33,2a8.33,8.33,0,1,0,8.33,8.33h0A8.3394,8.3394,0,0,0,10.33,2Z" transform="translate(0 0)"/></g></g></svg>