<svg id="Group_668" data-name="Group 668" xmlns="http://www.w3.org/2000/svg" width="21.555" height="21.635" viewBox="0 0 21.555 21.635">
  <path id="Path_1051" data-name="Path 1051" d="M-742.974,20.138h-.338a.813.813,0,0,1-.471-.851c.012-2.182.006-4.364.006-6.547V12.5h-1.268v.26c0,2.175-.006,4.35.006,6.526a.815.815,0,0,1-.471.851h-.338a.813.813,0,0,1-.471-.851c.012-2.182.006-4.364.006-6.547V12.5h-1.268v.26c0,2.175-.007,4.35.006,6.526a.814.814,0,0,1-.471.851h-.338a.793.793,0,0,1-.47-.851c.022-.506.005-1.013.005-1.52v-.2h-2.536c0,.579-.016,1.148.006,1.716a.8.8,0,0,1-.47.851h-.338a.768.768,0,0,1-.467-.851c.014-.15,0-.3,0-.459h-3.055a1.135,1.135,0,0,1-.252-.018.635.635,0,0,1-.5-.669.634.634,0,0,1,.642-.579c.972,0,1.943,0,2.915,0h.231V16.293c-.625,0-1.236,0-1.848,0a.636.636,0,0,1-.674-.634.637.637,0,0,1,.675-.632c.549,0,1.1,0,1.648,0,.067,0,.135-.006.2-.009V13.758h-3.045a1.128,1.128,0,0,1-.252-.018.634.634,0,0,1-.495-.669.633.633,0,0,1,.642-.579c.972,0,1.943,0,2.915,0h.231V11.223c-.625,0-1.236,0-1.848,0a.637.637,0,0,1-.674-.634.637.637,0,0,1,.675-.632c.549,0,1.1,0,1.648,0,.067,0,.135-.006.2-.009V8.7h-5.061V8.96c0,3.442,0,6.885.006,10.327a.816.816,0,0,1-.471.851h-.338a.793.793,0,0,1-.47-.851c.022-.506.005-1.014.005-1.52v-.206h-.182a2.322,2.322,0,0,1-2.353-2.381q0-7.149,0-14.3a2.316,2.316,0,0,1,2.379-2.375q8.4,0,16.794,0a2.647,2.647,0,0,1,.767.115,2.308,2.308,0,0,1,1.613,2.3q0,6.949,0,13.9c0,.169,0,.338,0,.507a2.307,2.307,0,0,1-1.726,2.148,8.113,8.113,0,0,1-.807.119c0,.557-.016,1.126.005,1.693A.8.8,0,0,1-742.974,20.138ZM-741.241,4.9h-19.017V15.095c0,.07,0,.141,0,.211a1.05,1.05,0,0,0,1.265.958v-.247q0-3.919,0-7.837c0-.523.237-.76.76-.76h6.064c.553,0,.783.229.783.779q0,3.919,0,7.837v.24h2.536v-.248c0-1.563,0-3.126,0-4.69a.9.9,0,0,1,.21-.6c.8-.992,1.593-1.989,2.39-2.983a.65.65,0,0,1,1.138-.008q1.2,1.5,2.4,3a.88.88,0,0,1,.2.582c0,1.57,0,3.14,0,4.711v.242a1.074,1.074,0,0,0,1.268-1.147q0-5.017,0-10.034Zm0-1.293V3.432c0-.852,0-1.7,0-2.556a1.052,1.052,0,0,0-1.1-1.1q-8.407,0-16.815,0a1.053,1.053,0,0,0-1.1,1.1c0,.852,0,1.7,0,2.556v.173Zm-6.149,7.6h3.424l-1.713-2.139Z" transform="translate(761.528 1.496)"/>
  <path id="Path_1052" data-name="Path 1052" d="M-535.6,44.829a.64.64,0,0,1-.633.628.64.64,0,0,1-.633-.649.641.641,0,0,1,.643-.617A.639.639,0,0,1-535.6,44.829Z" transform="translate(549.543 -41.612)"/>
  <path id="Path_1053" data-name="Path 1053" d="M-491.3,45.455a.64.64,0,0,1-.628-.633.64.64,0,0,1,.649-.633.64.64,0,0,1,.617.644A.64.64,0,0,1-491.3,45.455Z" transform="translate(507.148 -41.61)"/>
  <path id="Path_1054" data-name="Path 1054" d="M-446.368,44.192a.64.64,0,0,1,.628.633.64.64,0,0,1-.649.633.641.641,0,0,1-.617-.644A.64.64,0,0,1-446.368,44.192Z" transform="translate(464.758 -41.613)"/>
</svg>
