<svg xmlns="http://www.w3.org/2000/svg" width="22.268" height="22.269" viewBox="0 0 22.268 22.269">
  <g id="Group_665" data-name="Group 665" transform="translate(0 0)">
    <path id="Path_1044" data-name="Path 1044" d="M-614.649-103h5.567a.748.748,0,0,1,.48.7c0,1.289,0,2.578,0,3.867a.652.652,0,0,1-.7.693c-.565,0-1.13,0-1.695,0-.069,0-.139.006-.218.01,0,.425,0,.83,0,1.235a.218.218,0,0,0,.155.239,1.832,1.832,0,0,1,.964.956.248.248,0,0,0,.273.172c1.818,0,3.636.014,5.453-.011.752-.01,1.031.243.992,1-.027.532-.005,1.067-.005,1.619.608,0,1.194.017,1.778-.006a.817.817,0,0,1,.875.484v4.262a.834.834,0,0,1-.875.485c-1.658-.015-3.317-.005-4.975-.007a.659.659,0,0,1-.717-.716c0-.192,0-.385,0-.571h-3.9v1.356c.049.011.084.018.119.027a3.284,3.284,0,0,1,2.469,2.92,3.311,3.311,0,0,1-1.955,3.27,7.639,7.639,0,0,1-.952.283h-.7a.9.9,0,0,0-.123-.038,3.305,3.305,0,0,1-2.692-2.459,3.269,3.269,0,0,1,1.21-3.417,3.331,3.331,0,0,1,1.289-.586V-88.59h-3.9c0,.178,0,.344,0,.509,0,.537-.245.782-.782.782-1.637,0-3.274-.009-4.91.006a.836.836,0,0,1-.876-.485V-92.04a.816.816,0,0,1,.876-.484c.52.023,1.043.006,1.564.006h.213c0-.614,0-1.193,0-1.772,0-.614.223-.838.834-.838h5.605c.1,0,.192.023.247-.109a1.89,1.89,0,0,1,1.028-1.035c.045-.02.107-.073.107-.111.008-.446,0-.892,0-1.354h-1.846a.672.672,0,0,1-.761-.759c0-1.209.011-2.419-.006-3.628A.831.831,0,0,1-614.649-103Zm7.35,13.081c0-.643,0-1.272,0-1.9a.653.653,0,0,1,.692-.7c.536,0,1.073,0,1.609,0h.291v-1.3c-.046,0-.074-.006-.1-.006-1.681,0-3.363,0-5.044,0-.148,0-.188.07-.245.181a1.879,1.879,0,0,1-1.77,1.121,1.867,1.867,0,0,1-1.765-1.126.27.27,0,0,0-.293-.175q-2.446.006-4.892,0c-.07,0-.14.006-.209.01v1.295c.639,0,1.261-.011,1.884.007a.983.983,0,0,1,.478.161.591.591,0,0,1,.233.535c0,.628,0,1.257,0,1.9Zm-4.561,3.926a1.963,1.963,0,0,0-1.962,1.942,2.01,2.01,0,0,0,1.951,2.015,2.008,2.008,0,0,0,1.962-2A1.961,1.961,0,0,0-611.86-85.994Zm-1.952-13.063h3.887v-2.628h-3.887Zm-3.941,10.443V-91.2h-3.931v2.583Zm11.768,0h3.935V-91.2h-3.935Zm-5.23-5.859a.659.659,0,0,0-.645-.653.66.66,0,0,0-.658.639.66.66,0,0,0,.655.664A.66.66,0,0,0-611.214-94.474Z" transform="translate(623 103)"/>
  </g>
</svg>
