<svg id="Group_667" data-name="Group 667" xmlns="http://www.w3.org/2000/svg" width="21.967" height="22.972" viewBox="0 0 21.967 22.972">
  <path id="Path_1047" data-name="Path 1047" d="M-537.119,18.688a4.986,4.986,0,0,1-.711-.315,1.6,1.6,0,0,1-.677-1.07c-.111-.511-.221-1.022-.348-1.528a.438.438,0,0,0-.192-.235c-.518-.311-1.048-.6-1.565-.918a.352.352,0,0,0-.328-.051c-.49.162-.982.316-1.474.47a1.666,1.666,0,0,1-2.084-.812q-.749-1.289-1.495-2.579a1.662,1.662,0,0,1,.322-2.175c.383-.357.776-.7,1.153-1.067a.441.441,0,0,0,.116-.284q.015-.918,0-1.836A.441.441,0,0,0-544.515,6c-.383-.368-.781-.72-1.169-1.083a1.656,1.656,0,0,1-.321-2.14q.765-1.331,1.54-2.657a1.641,1.641,0,0,1,1.982-.774q.763.229,1.519.477a.388.388,0,0,0,.367-.051c.509-.312,1.033-.6,1.546-.906a.439.439,0,0,0,.194-.233c.137-.543.247-1.092.381-1.636a1.623,1.623,0,0,1,1.627-1.281q1.573-.006,3.146,0A1.622,1.622,0,0,1-532.076-3c.13.529.245,1.062.36,1.595a.4.4,0,0,0,.232.292q.777.423,1.53.888a.391.391,0,0,0,.368.053c.5-.165,1.01-.326,1.518-.48a1.643,1.643,0,0,1,1.982.776q.777,1.325,1.54,2.657a1.66,1.66,0,0,1-.323,2.141c-.388.363-.787.714-1.17,1.083a.441.441,0,0,0-.112.285c-.01.6,0,1.209-.01,1.814a.378.378,0,0,0,.139.326q.576.517,1.142,1.046a1.664,1.664,0,0,1,.32,2.176q-.745,1.291-1.5,2.579a1.661,1.661,0,0,1-2.084.81c-.5-.156-1-.322-1.5-.469a.405.405,0,0,0-.28.045c-.52.293-1.028.609-1.553.893a.439.439,0,0,0-.252.328q-.163.767-.343,1.53a1.61,1.61,0,0,1-1.286,1.286.475.475,0,0,0-.081.036Zm11.408-15.015c-.041-.09-.064-.153-.1-.21-.5-.86-1-1.718-1.493-2.581a.3.3,0,0,0-.409-.146c-.647.211-1.3.409-1.945.617a.758.758,0,0,1-.759-.131A7.427,7.427,0,0,0-532.5.012a.738.738,0,0,1-.488-.568c-.146-.663-.3-1.325-.445-1.989a.333.333,0,0,0-.385-.307q-1.449.015-2.9,0a.341.341,0,0,0-.4.316c-.134.643-.29,1.282-.426,1.924a.819.819,0,0,1-.553.646,7.045,7.045,0,0,0-1.991,1.153.816.816,0,0,1-.836.156c-.631-.21-1.27-.4-1.9-.6a.317.317,0,0,0-.44.168q-.718,1.268-1.461,2.522a.343.343,0,0,0,.082.5c.492.438.971.89,1.461,1.33a.765.765,0,0,1,.271.72,8.406,8.406,0,0,0,0,2.435.782.782,0,0,1-.284.737c-.5.445-.98.9-1.476,1.347a.311.311,0,0,0-.065.451q.749,1.276,1.483,2.56a.294.294,0,0,0,.4.16c.6-.2,1.217-.369,1.815-.581a.97.97,0,0,1,1.037.189,6.214,6.214,0,0,0,1.839,1.06.913.913,0,0,1,.635.737c.124.622.279,1.238.408,1.859a.341.341,0,0,0,.4.32c.959-.012,1.918,0,2.877,0,.307,0,.343-.03.409-.323.146-.648.3-1.3.438-1.945a.766.766,0,0,1,.512-.6,7.2,7.2,0,0,0,2.032-1.173.8.8,0,0,1,.815-.154c.646.212,1.3.406,1.946.616a.283.283,0,0,0,.388-.147q.74-1.294,1.5-2.579a.313.313,0,0,0-.073-.451c-.484-.435-.955-.885-1.443-1.316a.828.828,0,0,1-.312-.792,7.936,7.936,0,0,0,0-2.368.827.827,0,0,1,.307-.794c.488-.431.963-.876,1.44-1.32A1.644,1.644,0,0,0-525.711,3.672Z" transform="translate(546.26 4.285)"/>
  <path id="Path_1048" data-name="Path 1048" d="M-386.225,131.153a.71.71,0,0,1-.688-.891q.535-2.335,1.078-4.669.169-.731.338-1.462a.735.735,0,0,1,.892-.608.727.727,0,0,1,.506.931q-.7,3.044-1.4,6.087A.717.717,0,0,1-386.225,131.153Z" transform="translate(396.483 -115.843)"/>
  <path id="Path_1049" data-name="Path 1049" d="M-465.312,142.309l1.163,1.046c.2.18.4.357.6.54a.723.723,0,0,1,.094,1.039.711.711,0,0,1-1.043.038q-1.194-1.056-2.372-2.13a.7.7,0,0,1,0-1.07q1.187-1.081,2.389-2.145a.71.71,0,0,1,1.01.037.711.711,0,0,1-.048,1.024c-.511.472-1.034.931-1.552,1.4C-465.145,142.153-465.22,142.224-465.312,142.309Z" transform="translate(471.861 -130.82)"/>
  <path id="Path_1050" data-name="Path 1050" d="M-320.957,142.29c-.6-.537-1.17-1.054-1.746-1.564a.749.749,0,0,1-.291-.647.677.677,0,0,1,.438-.6.684.684,0,0,1,.754.127c.482.426.96.858,1.439,1.287.306.275.615.547.918.826a.72.72,0,0,1,0,1.149q-1.14,1.032-2.288,2.055a.726.726,0,0,1-1.078,0,.734.734,0,0,1,.133-1.086Z" transform="translate(336.38 -130.803)"/>
</svg>
