<svg id="Group_666" data-name="Group 666" xmlns="http://www.w3.org/2000/svg" width="23.412" height="23.412" viewBox="0 0 23.412 23.412">
  <path id="Path_1045" data-name="Path 1045" d="M-666.111-31.588h-.366a.86.86,0,0,1-.509-.92c.024-.562.006-1.126.006-1.689v-.309h-1.747c0,.693-.011,1.369,0,2.045a.8.8,0,0,1-.544.873h-.32a.817.817,0,0,1-.517-.889c.023-.478.005-.959.005-1.438v-.6h-1.757v.258c0,.594-.015,1.188.005,1.781a.815.815,0,0,1-.526.884h-.32a.811.811,0,0,1-.536-.88c.018-.647,0-1.3.008-1.943a.247.247,0,0,0-.189-.28,2.431,2.431,0,0,1-1.485-1.485.247.247,0,0,0-.279-.191c-.648.008-1.3-.01-1.943.008a.808.808,0,0,1-.88-.534v-.32a.807.807,0,0,1,.883-.527c.38.019.761,0,1.141,0h.89v-1.755c-.689,0-1.358-.017-2.026.006A.823.823,0,0,1-678-40v-.32a.8.8,0,0,1,.873-.544c.555.016,1.111,0,1.667,0h.379v-1.746c-.677,0-1.339-.017-2,.006a.864.864,0,0,1-.92-.509v-.366a.858.858,0,0,1,.92-.509c.554.024,1.111.006,1.666.006h.332v-1.746c-.693,0-1.369-.011-2.045,0a.805.805,0,0,1-.874-.544v-.32a.816.816,0,0,1,.888-.517c.509.024,1.019.006,1.529.006h.5v-1.755h-.258c-.594,0-1.188-.015-1.78,0a.816.816,0,0,1-.883-.528v-.32a.808.808,0,0,1,.88-.534c.655.018,1.311,0,1.966.007a.219.219,0,0,0,.247-.169,2.448,2.448,0,0,1,1.514-1.515.219.219,0,0,0,.167-.248c-.005-.655.011-1.311-.007-1.966A.811.811,0,0,1-672.7-55h.32a.808.808,0,0,1,.525.884c-.021.456,0,.913,0,1.37v.661h1.757c0-.689.017-1.358-.006-2.026a.824.824,0,0,1,.518-.889h.32a.8.8,0,0,1,.544.873c-.016.555,0,1.111,0,1.667v.379h1.747c0-.677.017-1.338-.006-2a.862.862,0,0,1,.509-.92h.366a.856.856,0,0,1,.509.92c-.023.562-.006,1.126-.006,1.69v.309h1.747c0-.693.012-1.369,0-2.045a.8.8,0,0,1,.544-.873h.32a.814.814,0,0,1,.518.888c-.023.471-.005.943-.005,1.415v.618h1.757v-.258c0-.594.015-1.188-.005-1.781a.813.813,0,0,1,.525-.884h.32a.811.811,0,0,1,.536.88c-.017.647,0,1.3-.008,1.943a.247.247,0,0,0,.189.28,2.423,2.423,0,0,1,1.484,1.485.247.247,0,0,0,.28.191c.648-.008,1.3.011,1.943-.009a.807.807,0,0,1,.88.534v.32a.806.806,0,0,1-.883.527c-.38-.019-.761,0-1.141,0h-.89V-47.1c.689,0,1.358.017,2.026-.006a.821.821,0,0,1,.888.518v.32a.8.8,0,0,1-.873.544c-.555-.016-1.111,0-1.667,0h-.378v1.746c.677,0,1.339.017,2-.006a.861.861,0,0,1,.92.509v.366a.855.855,0,0,1-.92.509c-.509-.024-1.02-.006-1.53-.006h-.469v1.746c.693,0,1.369.011,2.045,0a.8.8,0,0,1,.873.544V-40a.815.815,0,0,1-.888.517c-.471-.025-.943-.006-1.415-.006h-.619v1.755h.259c.594,0,1.188.015,1.781-.005a.814.814,0,0,1,.883.528v.32a.808.808,0,0,1-.88.534c-.655-.019-1.311,0-1.966-.007a.219.219,0,0,0-.248.168,2.444,2.444,0,0,1-1.514,1.515.218.218,0,0,0-.167.248c.005.655-.011,1.311.007,1.966a.812.812,0,0,1-.536.88h-.32a.807.807,0,0,1-.525-.884c.021-.41,0-.822,0-1.233v-.8h-1.757c0,.689-.016,1.358.006,2.026a.823.823,0,0,1-.518.888h-.32a.8.8,0,0,1-.544-.873c.017-.555,0-1.111,0-1.667v-.379h-1.747c0,.677-.017,1.338.006,2A.864.864,0,0,1-666.111-31.588Zm-.2-4.307h6.125a1.177,1.177,0,0,0,1.287-1.3q0-6.1,0-12.205a1.178,1.178,0,0,0-1.306-1.3h-12.182a1.182,1.182,0,0,0-1.309,1.317q0,6.08,0,12.159a1.185,1.185,0,0,0,1.329,1.321Z" transform="translate(678 55)"/>
  <path id="Path_1046" data-name="Path 1046" d="M-537.772,79.4c0,1.158.029,2.317-.008,3.475a2.468,2.468,0,0,1-2.325,2.338q-.194.011-.388.011c-2.187,0-4.375.018-6.561-.019a2.457,2.457,0,0,1-2.35-2.336c0-.008,0-.015,0-.023,0-2.3-.024-4.6.01-6.9a2.453,2.453,0,0,1,2.348-2.362h.023c2.294,0,4.588-.024,6.881.01a2.421,2.421,0,0,1,2.366,2.36c.036,1.149.008,2.3.008,3.452Zm-1.36,0q0-1.577,0-3.155a1.163,1.163,0,0,0-1.3-1.3q-3.166,0-6.332,0a1.158,1.158,0,0,0-1.283,1.289q0,3.166,0,6.332a1.159,1.159,0,0,0,1.283,1.289q3.166,0,6.332,0a1.164,1.164,0,0,0,1.3-1.3Q-539.131,80.977-539.133,79.4Z" transform="translate(555.294 -67.695)"/>
</svg>
